<?xml version="1.0" encoding="UTF-8"?>
<svg id="Penguin" xmlns="http://www.w3.org/2000/svg" viewBox="0 0 511.91 537.81">
  <defs>
    <style>
      .cls-1 {
        fill: #fff;
      }
    </style>
  </defs>
  <path class="cls-1" d="M510.82,375.98c.52,2.48,1.28,6.23,.5,10.98-.46,2.87-1.02,6.62-3.96,10.21-3.3,4.04-7.53,5.33-8.89,5.74-3.9,1.14-7.31,.61-9.22,.33-1.9-.27-3.27-.7-3.95-.9-6.59-1.99-7-1.38-19.35-4.62-8.58-2.25-12.88-3.37-14.51-4.06-.2-.08-1.09-.46-2.35-.68-1.34-.24-2.81-.52-4.25,.08-1.99,.82-2.89,2.87-3.59,4.44-.62,1.4-.85,2.54-.9,2.78-1.22,6.27-5.96,19.23-7.43,23.05-1.72,4.47-3.24,7.66-4.56,10.38-1.78,3.69-6.2,12.55-13.51,23.05-3.31,4.79-10.45,14.54-21.44,25.32-2.84,2.8-9.43,9.08-18.82,16.12-3.55,2.66-19.44,14.39-43.63,24.73-4.15,1.76-7.66,3.13-10.12,4.04h-.11v-179.5c0-2.95,2.13-5.32,4.77-5.32h71.2c1.72,4.45,6.02,7.63,11.06,7.63,6.53,0,11.82-5.29,11.82-11.82s-5.29-11.82-11.82-11.82c-5.33,0-9.86,3.55-11.32,8.43h-77.81c-2.9,0-5.26,2.42-5.26,5.41v189.53h-.32c-6.68,2.04-12.58,3.45-17.33,4.44-4.25,.88-9.75,2.01-17.09,2.73-1.23,.12-6.52,.64-13.55,.76-2.73,.05-5.06,.03-6.79-.02V264.02c0-3.11,2.63-5.64,5.89-5.64h73.37c1.87,4.04,5.96,6.84,10.71,6.84,6.52,0,11.8-5.3,11.8-11.82s-5.29-11.82-11.8-11.82c-5.29,0-9.75,3.46-11.27,8.23h-80.94c-3.21,0-5.79,2.92-5.79,6.53v281.22c-6.44-.15-12.09-.59-16.79-1.11-1.91-.2-7.75-.87-15.33-2.28-4.82-.9-9.37-1.91-13.63-2.99v-215.38c0-3.27-2.19-5.91-4.89-5.91h-60.14c-1.34-5.06-5.94-8.78-11.42-8.78-6.53,0-11.82,5.29-11.82,11.82s5.29,11.82,11.82,11.82c5,0,9.28-3.1,11-7.49h53.64c3.05,0,5.51,2.52,5.51,5.64v206.27h-.23c-2.96-.99-7.08-2.43-11.93-4.39-24.52-9.94-40.96-22.41-45.68-26.11-16.57-12.94-27.12-25.86-31.9-32.11-2.99-3.92-9.02-12.17-15.12-23.38-1.72-3.17-4.72-8.77-7.84-16.38-2.19-5.35-4.04-10.74-4.91-13.25-1.73-5.07-2.6-7.61-2.86-8.61-.15-.58-.91-3.45-2.28-7-.71-1.81-1.38-3.3-2.9-4.39-1.08-.77-2.17-1.06-2.64-1.18-1.79-.46-3.34-.23-4.06-.11-.46,.08-.79,.15-.96,.2-3.22,.81-4.82,1.2-7.5,2.19-2.11,.77-6.87,2.01-16.38,4.48-10.18,2.63-5.62,1.18-13.84,3.21-.73,.18-2.35,.58-4.56,.76-3.17,.26-5.59-.09-6.08-.17-2.17-.35-5.79-.9-9.21-3.55-3.1-2.4-4.48-5.3-5.23-6.91-2.16-4.66-1.97-8.84-1.85-10.8,.17-3.07,.87-5.29,1.85-8.45,.91-2.93,1.96-5.32,3.04-7.76,1.18-2.72,2.17-4.71,2.45-5.23,13.82-27.69,16.3-33.74,24.31-47.85,4.25-7.5,11.18-19.25,20.58-33.09,2.6-3.81,11.47-16.77,24.23-32.66,4-4.98,9.05-11.29,16.12-19.16,4.31-4.83,11.12-12.2,13.67-14.95,7.47-8.08,7.34-7.81,8.61-9.36,1.78-2.19,7.28-9.13,12.23-19.51,3.62-7.53,5.32-13.51,7-19.49,1.94-6.87,1.97-8.69,5.41-26.58,.41-2.14,2.67-13.95,5.48-27.34,2.14-10.19,3.21-15.28,4-18.4,1.79-7.09,5.65-21.83,15.36-38.1,4.31-7.22,13.13-21.65,29.71-33.8,7.34-5.39,13.82-8.58,16.53-9.86,2.17-1.02,11.35-5.21,24.43-7.76,3.96-.77,13.99-2.49,27.12-1.94,10.51,.44,32.46,1.29,54.35,15.15,15.24,9.65,23.82,21.25,28.57,27.79,14.78,20.33,19.95,41.32,23.09,54.13,.79,3.25,1.99,9.42,4.38,21.75,4.25,22.01,4.75,27.34,7.91,39.3,2.37,9.01,4.04,15.24,7.67,23.43,2.34,5.32,6.47,14.52,14.33,24.32,.96,1.18,.58,.67,9.69,11.07,4.48,5.1,9.13,10.42,11.88,13.61,9.18,10.68,15.97,19.7,19.23,24.06,8.55,11.39,14.51,20.34,18.4,26.25,5.03,7.58,10.45,15.81,16.97,27.25,5.39,9.46,9.28,17.15,12.24,23.05,1.38,2.75,4.06,8.39,9.45,19.66,.44,.91,1.55,3.24,2.95,6.33,1.37,2.98,2.46,5.39,3.63,8.26,2.04,5.01,3.07,7.5,3.63,10.21Z"/>
</svg>