<?xml version="1.0" encoding="UTF-8"?>
<svg xmlns="http://www.w3.org/2000/svg" viewBox="0 0 384.85 554.96">
  <defs>
    <style>
      .cls-1, .cls-2 {
        fill: #fff;
      }

      .cls-2 {
        font-family: BalsamiqSans-Regular, 'Balsamiq Sans';
        font-size: 146px;
      }
    </style>
  </defs>
  <g id="Penguin">
    <path class="cls-1" d="M366.55,255.94c.35,1.69,.87,4.24,.34,7.47-.31,1.95-.69,4.51-2.7,6.95-2.24,2.75-5.13,3.63-6.05,3.91-2.66,.78-4.97,.41-6.28,.23-1.29-.19-2.22-.48-2.69-.61-4.49-1.35-4.77-.94-13.17-3.14-5.84-1.53-8.77-2.3-9.87-2.76-.13-.05-.74-.31-1.6-.47-.91-.17-1.91-.35-2.89,.05-1.35,.56-1.96,1.95-2.44,3.02-.42,.95-.58,1.73-.61,1.89-.83,4.27-4.05,13.09-5.06,15.68-1.17,3.04-2.2,5.21-3.1,7.06-1.21,2.51-4.22,8.54-9.19,15.68-2.25,3.26-7.11,9.89-14.59,17.23-1.93,1.9-6.42,6.18-12.81,10.97-2.42,1.81-13.23,9.79-29.69,16.83-2.82,1.2-5.21,2.13-6.89,2.75h-.07v-122.16c0-2.01,1.45-3.62,3.25-3.62h48.45c1.17,3.03,4.09,5.19,7.53,5.19,4.45,0,8.04-3.6,8.04-8.04s-3.6-8.04-8.04-8.04c-3.63,0-6.71,2.42-7.7,5.74h-52.95c-1.97,0-3.58,1.64-3.58,3.68v128.98h-.22c-4.55,1.39-8.56,2.35-11.8,3.02-2.89,.6-6.64,1.36-11.63,1.86-.84,.08-4.44,.43-9.22,.52-1.86,.03-3.44,.02-4.62-.01V179.75c0-2.12,1.79-3.84,4.01-3.84h49.93c1.27,2.75,4.05,4.65,7.29,4.65,4.44,0,8.03-3.61,8.03-8.04s-3.6-8.04-8.03-8.04c-3.6,0-6.64,2.36-7.67,5.6h-55.08c-2.18,0-3.94,1.98-3.94,4.45v191.38c-4.38-.1-8.23-.4-11.42-.75-1.3-.13-5.27-.59-10.43-1.55-3.28-.61-6.38-1.3-9.27-2.04V214.99c0-2.22-1.49-4.02-3.33-4.02h-40.93c-.91-3.44-4.04-5.98-7.77-5.98-4.45,0-8.04,3.6-8.04,8.04s3.6,8.04,8.04,8.04c3.4,0,6.32-2.11,7.48-5.1h36.5c2.08,0,3.75,1.72,3.75,3.84v140.37h-.16c-2.02-.67-4.82-1.65-8.12-2.99-16.69-6.76-27.87-15.25-31.09-17.77-11.28-8.81-18.45-17.6-21.71-21.85-2.04-2.67-6.14-8.28-10.29-15.91-1.17-2.16-3.22-5.97-5.33-11.14-1.49-3.64-2.75-7.31-3.34-9.01-1.18-3.45-1.77-5.18-1.94-5.86-.1-.39-.62-2.35-1.55-4.77-.49-1.23-.94-2.24-1.97-2.99-.73-.53-1.48-.72-1.8-.81-1.22-.31-2.27-.16-2.76-.07-.31,.05-.54,.1-.65,.13-2.19,.55-3.28,.82-5.11,1.49-1.44,.53-4.67,1.36-11.14,3.05-6.93,1.79-3.83,.81-9.42,2.18-.5,.12-1.6,.39-3.1,.52-2.16,.18-3.8-.06-4.14-.11-1.48-.24-3.94-.61-6.26-2.42-2.11-1.63-3.05-3.61-3.56-4.7-1.47-3.17-1.34-6.02-1.26-7.35,.11-2.09,.59-3.6,1.26-5.75,.62-2,1.33-3.62,2.07-5.28,.81-1.85,1.48-3.2,1.66-3.56,9.41-18.85,11.09-22.96,16.54-32.57,2.89-5.11,7.61-13.1,14.01-22.52,1.77-2.59,7.81-11.41,16.49-22.23,2.72-3.39,6.16-7.68,10.97-13.04,2.94-3.29,7.57-8.3,9.3-10.17,5.09-5.5,4.99-5.31,5.86-6.37,1.21-1.49,4.95-6.21,8.32-13.27,2.46-5.13,3.62-9.19,4.77-13.26,1.32-4.67,1.34-5.91,3.68-18.09,.28-1.46,1.82-9.49,3.73-18.61,1.46-6.94,2.18-10.4,2.72-12.52,1.22-4.83,3.85-14.86,10.45-25.93,2.94-4.91,8.93-14.73,20.22-23,4.99-3.67,9.41-5.84,11.25-6.71,1.48-.69,7.72-3.55,16.62-5.28,2.7-.53,9.52-1.7,18.45-1.32,7.15,.3,22.09,.88,36.99,10.31,10.37,6.56,16.21,14.46,19.45,18.91,10.06,13.83,13.57,28.12,15.71,36.83,.54,2.21,1.35,6.41,2.98,14.8,2.89,14.98,3.24,18.61,5.39,26.74,1.61,6.13,2.75,10.37,5.22,15.94,1.59,3.62,4.4,9.88,9.75,16.55,.65,.81,.39,.45,6.6,7.54,3.05,3.47,6.21,7.09,8.08,9.26,6.24,7.27,10.87,13.41,13.09,16.38,5.82,7.75,9.87,13.84,12.52,17.86,3.42,5.16,7.11,10.76,11.55,18.55,3.67,6.44,6.32,11.67,8.33,15.68,.94,1.87,2.76,5.71,6.43,13.38,.3,.62,1.05,2.2,2.01,4.31,.93,2.03,1.67,3.67,2.47,5.62,1.39,3.41,2.09,5.11,2.47,6.95Z"/>
  </g>
  <g id="alias-text">
    <text class="cls-2" transform="translate(0 504.44)"><tspan x="0" y="0">ALiAS</tspan></text>
  </g>
</svg>