<svg xmlns="http://www.w3.org/2000/svg" xmlns:xlink="http://www.w3.org/1999/xlink" width="1341" zoomAndPan="magnify" viewBox="0 0 1006.5 821.999993" height="1096" preserveAspectRatio="xMidYMid meet" version="1.0"><defs><clipPath id="6d45a276e2"><path d="M 0 0.203125 L 1006 0.203125 L 1006 821.796875 L 0 821.796875 Z M 0 0.203125 " clip-rule="nonzero"/></clipPath><clipPath id="9d076c2af5"><path d="M 146 127.546875 L 860 127.546875 L 860 694.265625 L 146 694.265625 Z M 146 127.546875 " clip-rule="nonzero"/></clipPath></defs><g clip-path="url(#6d45a276e2)"><path fill="#ffffff" d="M 0 0.203125 L 1006 0.203125 L 1006 821.796875 L 0 821.796875 Z M 0 0.203125 " fill-opacity="1" fill-rule="nonzero"/><path fill="#000000" d="M 0 0.203125 L 1006 0.203125 L 1006 821.796875 L 0 821.796875 Z M 0 0.203125 " fill-opacity="1" fill-rule="nonzero"/></g><path stroke-linecap="butt" transform="matrix(0.749628, 0, 0, 0.749628, 59.384743, 237.66486)" fill="none" stroke-linejoin="miter" d="M 150.483609 54.869933 L 150.483609 80.877639 C 147.383111 95.119086 140.608914 105.89006 130.150596 113.200982 C 119.697488 120.511904 108.025025 124.164759 95.133207 124.164759 C 78.953298 124.164759 65.15999 118.109669 53.758495 105.999489 C 42.383055 93.889309 36.692729 79.257043 36.692729 62.107902 C 36.692729 44.677372 42.263204 29.951309 53.404153 17.934926 C 64.545101 5.918542 78.45826 -0.0896496 95.133207 -0.0896496 C 114.601208 -0.0896496 129.999479 6.747079 141.328021 20.420535 L 123.480617 40.039652 C 117.071184 29.774138 108.155298 24.641381 96.727749 24.641381 C 88.306901 24.641381 81.11583 28.294237 75.154536 35.605159 C 69.193243 42.91087 66.212596 51.748591 66.212596 62.107902 C 66.212596 72.300464 69.193243 81.007912 75.154536 88.219827 C 81.11583 95.436952 88.306901 99.04291 96.727749 99.04291 C 103.705172 99.04291 109.786317 96.937698 114.965972 92.727273 C 120.145627 88.496006 122.735455 82.899477 122.735455 75.948108 L 95.133207 75.948108 L 95.133207 54.869933 Z M 215.90151 47.595488 L 215.90151 122.002227 L 188.580652 122.002227 L 188.580652 2.109359 L 215.90151 2.109359 L 263.550171 76.510888 L 263.836771 76.510888 L 263.836771 2.109359 L 291.188895 2.109359 L 291.188895 122.002227 L 263.836771 122.002227 L 216.1829 47.595488 Z M 426.777057 2.109359 L 426.777057 79.423792 C 426.777057 94.134222 422.806335 105.275171 414.859681 112.846639 C 406.907816 120.392053 395.282251 124.164759 379.977776 124.164759 C 364.673302 124.164759 353.047737 120.392053 345.101083 112.846639 C 337.154428 105.275171 333.178496 94.134222 333.178496 79.423792 L 333.178496 2.109359 L 360.499354 2.109359 L 360.499354 71.440662 C 360.499354 81.112131 362.026154 87.844641 365.079753 91.627769 C 368.128142 95.410898 373.09415 97.307673 379.977776 97.307673 C 386.861403 97.307673 391.832621 95.410898 394.88101 91.627769 C 397.93461 87.844641 399.456199 81.112131 399.456199 71.440662 L 399.456199 2.109359 Z M 545.481835 -2.997343 L 485.629198 139.458812 L 463.378565 139.458812 L 523.27289 -2.997343 Z M 610.904947 2.109359 L 610.904947 98.016358 L 652.170229 98.016358 L 652.170229 122.002227 L 583.584089 122.002227 L 583.584089 2.109359 Z M 719.026345 2.109359 L 719.026345 122.002227 L 691.710697 122.002227 L 691.710697 2.109359 Z M 789.806283 47.595488 L 789.806283 122.002227 L 762.485425 122.002227 L 762.485425 2.109359 L 789.806283 2.109359 L 837.454944 76.510888 L 837.741545 76.510888 L 837.741545 2.109359 L 865.093668 2.109359 L 865.093668 122.002227 L 837.741545 122.002227 L 790.087673 47.595488 Z M 1000.68183 2.109359 L 1000.68183 79.423792 C 1000.68183 94.134222 996.711108 105.275171 988.764454 112.846639 C 980.812589 120.392053 969.187024 124.164759 953.88255 124.164759 C 938.578075 124.164759 926.95251 120.392053 919.005856 112.846639 C 911.059202 105.275171 907.083269 94.134222 907.083269 79.423792 L 907.083269 2.109359 L 934.404127 2.109359 L 934.404127 71.440662 C 934.404127 81.112131 935.930927 87.844641 938.984527 91.627769 C 942.032915 95.410898 946.998923 97.307673 953.88255 97.307673 C 960.766176 97.307673 965.737395 95.410898 968.785783 91.627769 C 971.839383 87.844641 973.360972 81.112131 973.360972 71.440662 L 973.360972 2.109359 Z M 1154.867769 122.002227 L 1119.56378 122.002227 L 1091.21637 81.159029 L 1062.86896 122.002227 L 1029.018818 122.002227 L 1074.364252 57.459761 L 1036.574653 2.109359 L 1069.111643 2.109359 L 1091.21637 34.787044 L 1113.28462 2.109359 L 1147.311933 2.109359 L 1108.068488 57.459761 Z M 1154.867769 122.002227 " stroke="#ffffff" stroke-width="6.176652" stroke-opacity="1" stroke-miterlimit="4"/><path stroke-linecap="butt" transform="matrix(0.749628, 0, 0, 0.749628, 59.384743, 237.66486)" fill="none" stroke-linejoin="miter" d="M 150.483609 218.868036 L 150.483609 244.875742 C 147.383111 259.117189 140.608914 269.893373 130.150596 277.199084 C 119.697488 284.510006 108.025025 288.162862 95.133207 288.162862 C 78.953298 288.162862 65.15999 282.107772 53.758495 269.997592 C 42.383055 257.887411 36.692729 243.255145 36.692729 226.106005 C 36.692729 208.675474 42.263204 193.949412 53.404153 181.933028 C 64.545101 169.916645 78.45826 163.908453 95.133207 163.908453 C 114.601208 163.908453 129.999479 170.745181 141.328021 184.418638 L 123.480617 204.037755 C 117.071184 193.772241 108.155298 188.639484 96.727749 188.639484 C 88.306901 188.639484 81.11583 192.292339 75.154536 199.603261 C 69.193243 206.914183 66.212596 215.746694 66.212596 226.106005 C 66.212596 236.303777 69.193243 245.006015 75.154536 252.22314 C 81.11583 259.435055 88.306901 263.046223 96.727749 263.046223 C 103.705172 263.046223 109.786317 260.941011 114.965972 256.730587 C 120.145627 252.494108 122.735455 246.897579 122.735455 239.946211 L 95.133207 239.946211 L 95.133207 218.868036 Z M 215.90151 211.598801 L 215.90151 286.00033 L 188.580652 286.00033 L 188.580652 166.107462 L 215.90151 166.107462 L 263.550171 240.514201 L 263.836771 240.514201 L 263.836771 166.107462 L 291.188895 166.107462 L 291.188895 286.00033 L 263.836771 286.00033 L 216.1829 211.598801 Z M 426.777057 166.107462 L 426.777057 243.421895 C 426.777057 258.137536 422.806335 269.278484 414.859681 276.844742 C 406.907816 284.390155 395.282251 288.162862 379.977776 288.162862 C 364.673302 288.162862 353.047737 284.390155 345.101083 276.844742 C 337.154428 269.278484 333.178496 258.137536 333.178496 243.421895 L 333.178496 166.107462 L 360.499354 166.107462 L 360.499354 235.438764 C 360.499354 245.115444 362.026154 251.842743 365.079753 255.625872 C 368.128142 259.414211 373.09415 261.305775 379.977776 261.305775 C 386.861403 261.305775 391.832621 259.414211 394.88101 255.625872 C 397.93461 251.842743 399.456199 245.115444 399.456199 235.438764 L 399.456199 166.107462 Z M 545.481835 161.000759 L 485.629198 303.456915 L 463.378565 303.456915 L 523.27289 161.000759 Z M 610.904947 166.107462 L 610.904947 262.014461 L 652.170229 262.014461 L 652.170229 286.00033 L 583.584089 286.00033 L 583.584089 166.107462 Z M 719.026345 166.107462 L 719.026345 286.00033 L 691.710697 286.00033 L 691.710697 166.107462 Z M 789.806283 211.598801 L 789.806283 286.00033 L 762.485425 286.00033 L 762.485425 166.107462 L 789.806283 166.107462 L 837.454944 240.514201 L 837.741545 240.514201 L 837.741545 166.107462 L 865.093668 166.107462 L 865.093668 286.00033 L 837.741545 286.00033 L 790.087673 211.598801 Z M 1000.68183 166.107462 L 1000.68183 243.421895 C 1000.68183 258.137536 996.711108 269.278484 988.764454 276.844742 C 980.812589 284.390155 969.187024 288.162862 953.88255 288.162862 C 938.578075 288.162862 926.95251 284.390155 919.005856 276.844742 C 911.059202 269.278484 907.083269 258.137536 907.083269 243.421895 L 907.083269 166.107462 L 934.404127 166.107462 L 934.404127 235.438764 C 934.404127 245.115444 935.930927 251.842743 938.984527 255.625872 C 942.032915 259.414211 946.998923 261.305775 953.88255 261.305775 C 960.766176 261.305775 965.737395 259.414211 968.785783 255.625872 C 971.839383 251.842743 973.360972 245.115444 973.360972 235.438764 L 973.360972 166.107462 Z M 1154.867769 286.00033 L 1119.56378 286.00033 L 1091.21637 245.162343 L 1062.86896 286.00033 L 1029.018818 286.00033 L 1074.364252 221.457863 L 1036.574653 166.107462 L 1069.111643 166.107462 L 1091.21637 198.790357 L 1113.28462 166.107462 L 1147.311933 166.107462 L 1108.068488 221.457863 Z M 1154.867769 286.00033 " stroke="#ffffff" stroke-width="6.176652" stroke-opacity="1" stroke-miterlimit="4"/><path stroke-linecap="butt" transform="matrix(0.749628, 0, 0, 0.749628, 59.384743, 237.66486)" fill="none" stroke-linejoin="miter" d="M 150.483609 382.871349 L 150.483609 408.879055 C 147.383111 423.115291 140.608914 433.891476 130.150596 441.202398 C 119.697488 448.508109 108.025025 452.166175 95.133207 452.166175 C 78.953298 452.166175 65.15999 446.111085 53.758495 433.995694 C 42.383055 421.885514 36.692729 407.258459 36.692729 390.109318 C 36.692729 372.673577 42.263204 357.952725 53.404153 345.936342 C 64.545101 333.919958 78.45826 327.911766 95.133207 327.911766 C 114.601208 327.911766 129.999479 334.748495 141.328021 348.41674 L 123.480617 368.041068 C 117.071184 357.775554 108.155298 352.642797 96.727749 352.642797 C 88.306901 352.642797 81.11583 356.295653 75.154536 363.601364 C 69.193243 370.912286 66.212596 379.750008 66.212596 390.109318 C 66.212596 400.30188 69.193243 409.009328 75.154536 416.221243 C 81.11583 423.438368 88.306901 427.044326 96.727749 427.044326 C 103.705172 427.044326 109.786317 424.939114 114.965972 420.728689 C 120.145627 416.492211 122.735455 410.900893 122.735455 403.944313 L 95.133207 403.944313 L 95.133207 382.871349 Z M 215.90151 375.596904 L 215.90151 449.998432 L 188.580652 449.998432 L 188.580652 330.110775 L 215.90151 330.110775 L 263.550171 404.512304 L 263.836771 404.512304 L 263.836771 330.110775 L 291.188895 330.110775 L 291.188895 449.998432 L 263.836771 449.998432 L 216.1829 375.596904 Z M 426.777057 330.110775 L 426.777057 407.425208 C 426.777057 422.135638 422.806335 433.276587 414.859681 440.848055 C 406.907816 448.393469 395.282251 452.166175 379.977776 452.166175 C 364.673302 452.166175 353.047737 448.393469 345.101083 440.848055 C 337.154428 433.276587 333.178496 422.135638 333.178496 407.425208 L 333.178496 330.110775 L 360.499354 330.110775 L 360.499354 399.442078 C 360.499354 409.113547 362.026154 415.846057 365.079753 419.629185 C 368.128142 423.412314 373.09415 425.303878 379.977776 425.303878 C 386.861403 425.303878 391.832621 423.412314 394.88101 419.629185 C 397.93461 415.846057 399.456199 409.113547 399.456199 399.442078 L 399.456199 330.110775 Z M 545.481835 324.998862 L 485.629198 467.455017 L 463.378565 467.455017 L 523.27289 324.998862 Z M 610.904947 330.110775 L 610.904947 426.012563 L 652.170229 426.012563 L 652.170229 449.998432 L 583.584089 449.998432 L 583.584089 330.110775 Z M 719.026345 330.110775 L 719.026345 449.998432 L 691.710697 449.998432 L 691.710697 330.110775 Z M 789.806283 375.596904 L 789.806283 449.998432 L 762.485425 449.998432 L 762.485425 330.110775 L 789.806283 330.110775 L 837.454944 404.512304 L 837.741545 404.512304 L 837.741545 330.110775 L 865.093668 330.110775 L 865.093668 449.998432 L 837.741545 449.998432 L 790.087673 375.596904 Z M 1000.68183 330.110775 L 1000.68183 407.425208 C 1000.68183 422.135638 996.711108 433.276587 988.764454 440.848055 C 980.812589 448.393469 969.187024 452.166175 953.88255 452.166175 C 938.578075 452.166175 926.95251 448.393469 919.005856 440.848055 C 911.059202 433.276587 907.083269 422.135638 907.083269 407.425208 L 907.083269 330.110775 L 934.404127 330.110775 L 934.404127 399.442078 C 934.404127 409.113547 935.930927 415.846057 938.984527 419.629185 C 942.032915 423.412314 946.998923 425.303878 953.88255 425.303878 C 960.766176 425.303878 965.737395 423.412314 968.785783 419.629185 C 971.839383 415.846057 973.360972 409.113547 973.360972 399.442078 L 973.360972 330.110775 Z M 1154.867769 449.998432 L 1119.56378 449.998432 L 1091.21637 409.160445 L 1062.86896 449.998432 L 1029.018818 449.998432 L 1074.364252 385.461177 L 1036.574653 330.110775 L 1069.111643 330.110775 L 1091.21637 362.78846 L 1113.28462 330.110775 L 1147.311933 330.110775 L 1108.068488 385.461177 Z M 1154.867769 449.998432 " stroke="#ffffff" stroke-width="6.176652" stroke-opacity="1" stroke-miterlimit="4"/><g clip-path="url(#9d076c2af5)"><path fill="#0a0000" d="M 445.082031 127.5625 C 417.394531 127.5625 402.40625 134.835938 387.277344 144.539062 C 346.175781 129.699219 288.800781 128.558594 233.992188 154.527344 C 179.1875 180.492188 135.941406 242.554688 148.214844 326.730469 C 167.914062 294.34375 201.453125 249.261719 233.136719 235.5625 C 228.855469 250.542969 248.265625 266.953125 274.527344 274.796875 C 300.644531 282.644531 332.757812 280.363281 351.882812 271.515625 C 352.3125 271.945312 352.597656 272.230469 352.738281 272.375 C 354.023438 273.515625 355.59375 274.65625 357.164062 275.511719 L 354.308594 282.789062 C 350.597656 289.207031 345.175781 292.347656 343.175781 299.765625 C 341.320312 307.183594 343.746094 314.320312 346.316406 319.453125 C 347.457031 321.878906 348.601562 324.449219 349.742188 327.300781 L 347.171875 336.003906 C 327.90625 401.632812 325.765625 428.3125 325.335938 431.167969 C 323.480469 442.296875 321.910156 453.566406 320.625 464.695312 L 311.0625 476.679688 C 304.640625 484.8125 296.363281 494.941406 288.65625 504.074219 C 318.914062 552.152344 355.023438 596.523438 396.414062 636.1875 C 432.09375 662.867188 463.492188 678.277344 502.882812 694.253906 C 542.417969 678.277344 573.675781 662.867188 609.355469 636.1875 C 650.746094 596.523438 686.855469 552.152344 717.113281 504.074219 C 709.40625 494.941406 701.128906 484.8125 694.707031 476.679688 L 685.144531 464.695312 C 684 453.566406 682.289062 442.296875 680.433594 431.167969 C 680.003906 428.457031 677.863281 401.632812 658.597656 336.003906 L 656.027344 327.300781 C 657.027344 324.589844 658.167969 321.878906 659.453125 319.453125 C 662.023438 314.320312 664.449219 307.183594 662.59375 299.765625 C 660.738281 292.347656 655.3125 289.207031 651.460938 282.789062 L 648.605469 275.511719 C 650.175781 274.65625 651.746094 273.65625 653.03125 272.375 C 653.171875 272.230469 653.457031 271.945312 653.886719 271.515625 C 673.011719 280.21875 705.125 282.503906 731.242188 274.796875 C 757.359375 266.953125 776.914062 250.6875 772.632812 235.5625 C 804.316406 249.261719 837.855469 294.488281 857.554688 326.730469 C 869.828125 242.554688 826.582031 180.492188 771.632812 154.527344 C 716.683594 128.558594 659.453125 129.699219 618.347656 144.539062 C 603.363281 134.835938 588.375 127.5625 560.6875 127.5625 C 533 127.5625 519.726562 139.546875 502.882812 139.546875 C 486.042969 139.546875 472.769531 127.5625 445.082031 127.5625 Z M 445.082031 127.5625 " fill-opacity="1" fill-rule="nonzero"/></g><path fill="#cc0b0b" d="M 354.59375 356.835938 C 348.171875 381.375 336.898438 428.171875 332.902344 469.6875 C 332.902344 469.6875 358.875 535.460938 366.441406 543.449219 C 374.003906 551.441406 424.386719 597.238281 435.089844 623.773438 C 421.816406 598.378906 367.296875 557.574219 359.019531 550.296875 C 352.027344 544.164062 328.191406 498.652344 320.910156 484.527344 C 316.628906 489.804688 311.636719 496.082031 306.355469 502.359375 C 333.1875 544.019531 364.726562 582.683594 400.265625 617.78125 C 434.378906 643.890625 470.199219 663.011719 502.742188 675.851562 C 535.28125 663.011719 571.390625 643.75 605.503906 617.496094 C 640.898438 582.542969 672.296875 543.878906 699.128906 502.503906 C 693.992188 496.226562 688.855469 489.949219 684.570312 484.527344 C 677.292969 498.652344 653.457031 544.164062 646.464844 550.296875 C 638.1875 557.574219 583.667969 598.378906 570.394531 623.773438 C 581.238281 597.238281 631.480469 551.441406 639.042969 543.449219 C 646.609375 535.460938 672.582031 469.6875 672.582031 469.6875 C 668.585938 428.3125 657.3125 381.804688 650.890625 357.121094 C 650.175781 361.257812 648.460938 365.824219 644.609375 370.675781 C 636.902344 380.375 627.484375 393.644531 619.488281 406.199219 C 621.058594 417.183594 620.203125 427.316406 616.777344 435.589844 C 609.355469 453.140625 601.507812 463.980469 593.800781 478.390625 C 588.519531 488.234375 584.378906 497.511719 577.527344 504.785156 C 569.535156 521.195312 549.554688 563.996094 546.273438 595.097656 C 544.84375 570.414062 554.40625 535.03125 558.976562 519.765625 C 544.132812 532.320312 526.007812 538.886719 502.882812 538.886719 C 479.621094 538.886719 461.496094 532.320312 446.652344 519.765625 C 451.21875 535.03125 460.78125 570.414062 459.496094 595.242188 C 456.214844 563.996094 436.234375 521.050781 428.238281 504.785156 C 421.53125 497.511719 417.394531 488.234375 412.113281 478.535156 C 404.261719 464.125 396.554688 453.425781 389.132812 435.734375 C 385.707031 427.457031 384.851562 417.328125 386.421875 406.34375 C 378.429688 393.789062 369.011719 380.519531 361.304688 370.816406 C 357.019531 365.679688 355.308594 361.117188 354.59375 356.835938 Z M 354.59375 356.835938 " fill-opacity="1" fill-rule="nonzero"/><path fill="#b40a0a" d="M 690.710938 220.296875 C 677.007812 220.296875 665.445312 222.011719 651.746094 224.433594 C 651.746094 224.433594 652.171875 225.433594 652.746094 227.144531 C 653.03125 228.003906 653.457031 229.144531 653.742188 230.285156 C 654.171875 231.570312 654.457031 232.996094 654.886719 234.566406 C 654.886719 234.851562 655.027344 234.992188 655.027344 235.277344 C 672.15625 231.570312 691.28125 229.855469 705.695312 231.140625 C 710.40625 231.570312 716.398438 232.28125 722.679688 233.421875 C 719.539062 233.28125 716.398438 233.28125 713.546875 233.28125 C 710.691406 233.28125 707.980469 233.28125 705.550781 233.421875 C 691.136719 234.136719 672.726562 238.273438 656.3125 244.125 C 656.3125 244.695312 656.457031 245.265625 656.457031 245.835938 C 656.457031 246.835938 656.597656 247.976562 656.597656 249.117188 C 656.597656 249.261719 656.597656 249.402344 656.597656 249.402344 C 656.597656 250.402344 656.597656 251.398438 656.597656 252.542969 C 656.597656 253.253906 656.457031 253.96875 656.457031 254.824219 C 656.457031 254.96875 656.457031 255.109375 656.457031 255.394531 C 656.457031 255.679688 656.457031 255.964844 656.457031 256.25 C 656.457031 256.25 656.457031 256.25 656.457031 256.394531 C 656.3125 257.820312 656.171875 259.246094 656.027344 259.960938 C 656.027344 259.960938 687.710938 273.515625 715.398438 267.949219 C 743.089844 262.386719 762.070312 251.6875 762.070312 240.984375 C 762.070312 230.285156 735.097656 224.292969 711.117188 221.582031 C 703.554688 220.726562 696.988281 220.296875 690.710938 220.296875 Z M 725.960938 233.996094 C 726.246094 233.996094 726.53125 234.136719 726.816406 234.136719 C 726.53125 233.996094 726.246094 233.996094 725.960938 233.996094 Z M 729.386719 234.566406 C 729.816406 234.707031 730.242188 234.707031 730.527344 234.851562 C 730.101562 234.707031 729.816406 234.707031 729.386719 234.566406 Z M 731.101562 234.992188 C 731.957031 235.136719 732.667969 235.277344 733.527344 235.421875 C 732.667969 235.277344 731.957031 235.136719 731.101562 234.992188 Z M 731.101562 234.992188 " fill-opacity="1" fill-rule="nonzero"/><path fill="#cc0b0b" d="M 578.386719 485.953125 C 578.242188 474.539062 577.957031 471.972656 574.246094 455.136719 C 570.535156 438.300781 566.539062 411.191406 565.683594 394.214844 C 564.828125 377.238281 565.683594 363.539062 567.109375 352.984375 C 568.964844 340 573.960938 326.875 579.382812 320.027344 C 587.664062 356.265625 596.652344 369.675781 603.503906 387.652344 C 610.355469 405.628906 610.785156 420.609375 606.644531 430.597656 C 598.652344 450.429688 588.660156 460.699219 578.386719 485.953125 Z M 578.386719 485.953125 " fill-opacity="1" fill-rule="nonzero"/><path fill="#cc0b0b" d="M 502.882812 454.707031 C 491.753906 454.707031 475.054688 456.5625 461.351562 459.558594 C 468.203125 461.699219 475.625 466.121094 479.476562 474.96875 C 466.632812 457.988281 442.65625 465.980469 442.65625 465.980469 C 431.808594 472.683594 429.953125 491.519531 440.65625 500.222656 C 451.363281 508.921875 481.617188 496.082031 502.882812 496.082031 C 524.152344 496.082031 554.40625 508.921875 565.113281 500.222656 C 575.816406 491.519531 573.960938 472.683594 563.113281 465.980469 C 563.113281 465.980469 538.992188 457.988281 526.292969 474.96875 C 530.144531 466.121094 537.566406 461.699219 544.417969 459.558594 C 530.714844 456.5625 514.015625 454.707031 502.882812 454.707031 Z M 456.070312 469.402344 C 458.496094 469.402344 461.066406 470.117188 463.351562 471.402344 C 469.203125 474.824219 471.769531 481.386719 469.058594 485.953125 C 466.347656 490.660156 459.355469 491.660156 453.503906 488.234375 C 447.652344 484.8125 445.082031 478.25 447.792969 473.683594 C 449.363281 470.972656 452.359375 469.402344 456.070312 469.402344 Z M 549.699219 469.402344 C 553.410156 469.402344 556.40625 470.972656 557.976562 473.683594 C 560.6875 478.390625 558.117188 484.953125 552.265625 488.234375 C 546.414062 491.660156 539.421875 490.519531 536.710938 485.953125 C 534 481.246094 536.566406 474.683594 542.417969 471.402344 C 544.703125 470.117188 547.273438 469.402344 549.699219 469.402344 Z M 549.699219 469.402344 " fill-opacity="1" fill-rule="nonzero"/><path fill="#9e0606" d="M 460.496094 470.117188 C 461.496094 470.402344 462.351562 470.832031 463.207031 471.402344 C 469.058594 474.824219 471.628906 481.386719 468.917969 485.953125 C 466.203125 490.660156 459.210938 491.660156 453.359375 488.234375 C 450.789062 486.667969 448.648438 484.527344 447.507812 482.101562 C 448.078125 486.382812 450.789062 490.519531 455.070312 493.230469 C 448.933594 493.65625 443.796875 492.945312 440.515625 490.234375 C 436.945312 487.378906 434.804688 483.386719 433.949219 478.960938 C 432.378906 486.523438 434.378906 494.941406 440.515625 500.078125 C 451.21875 508.78125 481.476562 495.941406 502.742188 495.941406 C 524.007812 495.941406 554.265625 508.78125 564.96875 500.078125 C 571.25 494.941406 573.105469 486.523438 571.535156 478.960938 C 570.679688 483.242188 568.394531 487.238281 564.96875 490.234375 C 561.6875 492.945312 556.546875 493.515625 550.410156 493.230469 C 554.550781 490.519531 557.40625 486.382812 557.976562 482.101562 C 556.835938 484.527344 554.695312 486.808594 552.125 488.234375 C 546.273438 491.660156 539.277344 490.519531 536.566406 485.953125 C 533.855469 481.246094 536.425781 474.683594 542.277344 471.402344 C 543.132812 470.832031 544.132812 470.542969 544.988281 470.117188 C 542.277344 470.257812 539.566406 471.117188 537.136719 472.542969 C 530.289062 476.539062 526.863281 484.097656 529.429688 489.804688 C 520.296875 487.949219 510.734375 486.097656 502.597656 486.097656 C 494.464844 486.097656 485.042969 487.949219 475.765625 489.804688 C 478.335938 483.957031 474.910156 476.394531 468.058594 472.542969 C 465.917969 471.257812 463.207031 470.402344 460.496094 470.117188 Z M 460.496094 470.117188 " fill-opacity="1" fill-rule="nonzero"/><path fill="#cc0b0b" d="M 502.882812 503.503906 C 482.617188 503.789062 467.632812 509.921875 454.929688 510.921875 C 466.777344 521.195312 483.046875 527.042969 502.882812 527.042969 C 522.722656 527.042969 538.992188 521.195312 550.839844 510.921875 C 538.136719 510.066406 523.152344 503.789062 502.882812 503.503906 Z M 502.882812 503.503906 " fill-opacity="1" fill-rule="nonzero"/><path fill="#ffffff" d="M 627.769531 281.503906 C 618.632812 281.789062 613.496094 281.933594 608.5 286.640625 C 603.503906 291.347656 600.363281 297.769531 594.65625 302.621094 C 594.65625 302.621094 625.339844 306.328125 627.769531 281.503906 Z M 627.769531 281.503906 " fill-opacity="1" fill-rule="nonzero"/><path fill="#cc0b0b" d="M 620.0625 309.609375 C 620.0625 309.609375 610.925781 312.605469 605.21875 313.175781 C 599.652344 313.75 593.515625 313.605469 590.375 318.882812 C 587.234375 324.304688 596.367188 349.988281 600.507812 359.402344 C 604.789062 368.960938 610.070312 376.953125 613.066406 394.929688 C 613.066406 394.929688 630.90625 370.246094 636.046875 362.96875 C 641.183594 355.695312 639.613281 346.277344 639.1875 339.855469 C 638.757812 333.4375 638.613281 328.15625 636.757812 326.019531 C 633.046875 322.023438 621.058594 310.609375 620.0625 309.609375 Z M 620.0625 309.609375 " fill-opacity="1" fill-rule="nonzero"/><path fill="#9e0606" d="M 640.753906 287.070312 C 640.753906 287.070312 637.617188 292.773438 633.476562 297.484375 C 630.90625 300.335938 626.769531 303.332031 629.050781 307.328125 C 630.195312 309.324219 632.476562 311.464844 635.617188 314.320312 C 638.757812 317.171875 642.753906 321.308594 645.179688 325.304688 C 646.035156 322.308594 647.75 316.746094 649.175781 314.175781 C 651.746094 309.183594 653.171875 302.621094 648.75 297.625 C 644.324219 292.773438 641.46875 288.921875 640.753906 287.070312 Z M 640.753906 287.070312 " fill-opacity="1" fill-rule="nonzero"/><path fill="#9e0606" d="M 365.011719 287.070312 C 365.011719 287.070312 368.152344 292.773438 372.292969 297.484375 C 374.863281 300.335938 379 303.332031 376.71875 307.328125 C 375.574219 309.324219 373.292969 311.464844 370.152344 314.320312 C 367.011719 317.171875 363.015625 321.308594 360.589844 325.304688 C 359.734375 322.308594 358.019531 316.746094 356.59375 314.175781 C 354.023438 309.183594 352.597656 302.621094 357.019531 297.625 C 361.445312 292.773438 364.300781 288.921875 365.011719 287.070312 Z M 365.011719 287.070312 " fill-opacity="1" fill-rule="nonzero"/><path fill="#ffffff" d="M 683.003906 145.964844 C 648.890625 145.824219 625.484375 154.527344 625.484375 154.527344 L 624.914062 159.089844 C 624.058594 164.796875 624.34375 170.789062 624.914062 175.925781 C 631.191406 173.785156 665.304688 163.371094 709.261719 169.933594 C 665.875 171.648438 634.617188 187.339844 627.769531 191.050781 C 630.90625 201.609375 637.046875 212.164062 648.175781 219.15625 C 648.175781 219.15625 702.839844 202.890625 747.226562 214.164062 C 791.613281 225.433594 819.445312 247.832031 851.988281 300.621094 C 844.851562 232.140625 814.59375 181.632812 748.65625 157.523438 C 724.820312 148.960938 702.269531 146.109375 683.003906 145.964844 Z M 683.003906 145.964844 " fill-opacity="1" fill-rule="nonzero"/><path fill="#ffffff" d="M 322.765625 145.964844 C 356.878906 145.824219 380.285156 154.527344 380.285156 154.527344 L 380.855469 159.089844 C 381.710938 164.796875 381.425781 170.789062 380.855469 175.925781 C 374.574219 173.785156 340.464844 163.371094 296.507812 169.933594 C 339.894531 171.648438 371.152344 187.339844 378 191.050781 C 374.863281 201.609375 368.722656 212.164062 357.59375 219.15625 C 357.59375 219.15625 302.929688 202.890625 258.542969 214.164062 C 214.15625 225.433594 186.324219 247.832031 153.78125 300.621094 C 160.917969 232.140625 191.175781 181.632812 257.113281 157.523438 C 280.949219 148.960938 303.5 146.109375 322.765625 145.964844 Z M 322.765625 145.964844 " fill-opacity="1" fill-rule="nonzero"/><path fill="#cc0b0b" d="M 385.707031 309.609375 C 385.707031 309.609375 394.84375 312.605469 400.550781 313.175781 C 406.117188 313.75 412.253906 313.605469 415.394531 318.882812 C 418.535156 324.304688 409.402344 349.988281 405.261719 359.402344 C 400.980469 368.960938 395.699219 376.953125 392.703125 394.929688 C 392.703125 394.929688 374.863281 370.246094 369.722656 362.96875 C 364.585938 355.695312 366.15625 346.277344 366.582031 339.855469 C 367.011719 333.4375 367.15625 328.15625 369.011719 326.019531 C 372.71875 322.023438 384.710938 310.609375 385.707031 309.609375 Z M 385.707031 309.609375 " fill-opacity="1" fill-rule="nonzero"/><path fill="#cc0b0b" d="M 559.402344 138.832031 C 582.097656 138.832031 599.222656 145.109375 617.207031 157.949219 C 617.207031 157.949219 610.640625 205.03125 644.039062 225.71875 C 644.039062 225.71875 654.171875 249.546875 621.773438 243.695312 C 621.773438 243.695312 632.050781 253.683594 647.320312 248.691406 C 647.320312 248.691406 654.171875 263.527344 638.472656 267.238281 C 622.914062 270.804688 616.777344 263.8125 610.925781 269.804688 C 605.21875 275.796875 550.554688 337.574219 517.871094 296.199219 C 517.871094 296.199219 518.441406 313.460938 532.285156 322.878906 C 532.285156 322.878906 520.441406 336.859375 521.867188 360.117188 C 521.867188 360.117188 536.710938 324.734375 567.679688 320.167969 C 567.679688 320.167969 544.703125 360.972656 566.109375 457.5625 C 547.558594 451.285156 524.007812 447.003906 503.171875 447.003906 C 482.332031 447.003906 458.78125 451.285156 440.230469 457.5625 C 461.636719 360.972656 438.660156 320.167969 438.660156 320.167969 C 469.628906 324.734375 484.472656 360.117188 484.472656 360.117188 C 485.902344 336.859375 474.054688 322.878906 474.054688 322.878906 C 487.898438 313.460938 488.46875 296.199219 488.46875 296.199219 C 455.785156 337.574219 401.265625 275.796875 395.414062 269.804688 C 389.703125 263.8125 383.566406 270.804688 367.867188 267.238281 C 352.3125 263.671875 359.019531 248.691406 359.019531 248.691406 C 374.148438 253.683594 384.566406 243.695312 384.566406 243.695312 C 352.167969 249.6875 362.300781 225.71875 362.300781 225.71875 C 395.554688 205.03125 389.132812 157.949219 389.132812 157.949219 C 406.972656 145.109375 423.671875 138.832031 446.9375 138.832031 C 470.199219 138.832031 480.761719 152.671875 503.457031 152.671875 C 525.578125 152.527344 536.566406 138.832031 559.402344 138.832031 Z M 559.402344 138.832031 " fill-opacity="1" fill-rule="nonzero"/><path fill="#9e0606" d="M 446.367188 138.832031 C 427.8125 138.832031 413.398438 142.828125 399.265625 150.960938 C 399.125 150.960938 399.125 151.101562 398.980469 151.101562 C 398.695312 151.246094 398.269531 151.53125 397.984375 151.671875 C 397.839844 151.816406 397.699219 151.816406 397.410156 151.957031 C 397.125 152.101562 396.839844 152.386719 396.554688 152.527344 C 396.269531 152.671875 396.128906 152.8125 395.84375 152.957031 C 395.554688 153.097656 395.128906 153.382812 394.84375 153.527344 C 394.414062 153.8125 394.128906 153.957031 393.699219 154.242188 C 393.558594 154.382812 393.414062 154.382812 393.273438 154.527344 C 392.84375 154.8125 392.417969 155.097656 392.132812 155.382812 C 391.988281 155.523438 391.84375 155.523438 391.84375 155.667969 C 391.417969 155.953125 390.847656 156.378906 390.417969 156.667969 C 390.417969 156.667969 390.277344 156.667969 390.277344 156.808594 C 389.703125 157.238281 389.277344 157.523438 388.707031 157.949219 C 388.707031 157.949219 388.707031 157.949219 388.5625 157.949219 C 388.5625 157.949219 388.5625 158.09375 388.5625 158.378906 C 388.5625 158.519531 388.5625 158.804688 388.707031 159.234375 C 388.707031 159.375 388.707031 159.664062 388.707031 159.949219 C 388.707031 160.234375 388.707031 160.519531 388.847656 160.945312 C 388.847656 161.375 388.847656 161.660156 388.992188 162.085938 C 388.992188 162.230469 388.992188 162.230469 388.992188 162.371094 C 388.992188 162.371094 388.992188 162.515625 388.992188 162.515625 C 388.992188 162.800781 388.992188 163.085938 388.992188 163.515625 C 388.992188 163.65625 388.992188 163.65625 388.992188 163.800781 C 388.992188 164.085938 388.992188 164.371094 388.992188 164.796875 C 388.992188 164.941406 388.992188 165.082031 388.992188 165.226562 C 388.992188 165.511719 388.992188 165.941406 388.992188 166.226562 C 388.992188 166.367188 388.992188 166.511719 388.992188 166.652344 C 388.992188 167.082031 388.992188 167.367188 388.992188 167.792969 C 388.992188 167.9375 388.992188 168.078125 388.992188 168.222656 C 388.992188 168.652344 388.992188 169.222656 388.992188 169.648438 C 388.992188 169.933594 388.992188 170.21875 388.992188 170.503906 C 388.992188 170.789062 388.992188 170.933594 388.992188 171.21875 C 388.992188 171.503906 388.992188 171.933594 388.992188 172.21875 C 388.992188 172.359375 388.992188 172.644531 388.992188 172.789062 C 388.992188 173.214844 388.992188 173.5 388.992188 173.929688 C 388.992188 174.070312 388.992188 174.355469 388.992188 174.5 C 388.992188 174.929688 388.992188 175.355469 388.847656 175.785156 C 388.5625 179.492188 387.992188 183.488281 387.136719 187.625 C 384.136719 201.179688 377.289062 216.304688 361.875 225.863281 C 361.875 225.863281 351.742188 249.6875 384.136719 243.839844 C 384.136719 243.839844 373.863281 253.824219 358.589844 248.832031 C 358.589844 248.832031 351.742188 263.671875 367.441406 267.378906 C 382.996094 270.945312 389.132812 263.957031 394.984375 269.949219 C 396.269531 271.375 400.125 275.65625 405.691406 280.789062 C 424.53125 298.625 462.78125 328.15625 488.042969 296.199219 C 462.921875 314.890625 435.804688 294.203125 421.390625 271.375 C 418.964844 267.664062 416.964844 263.8125 415.253906 260.101562 C 407.6875 242.839844 403.261719 218.871094 408.117188 200.039062 C 411.257812 187.910156 412.824219 175.640625 412.398438 164.226562 C 422.675781 160.234375 433.519531 158.234375 446.652344 158.234375 C 469.914062 158.234375 480.476562 172.074219 503.171875 172.074219 C 525.863281 172.074219 536.996094 158.234375 559.6875 158.234375 C 572.535156 158.234375 583.523438 160.234375 593.941406 164.226562 C 593.515625 175.785156 595.085938 187.910156 598.222656 200.039062 C 603.078125 218.726562 598.652344 242.839844 591.089844 260.101562 C 589.519531 263.8125 587.378906 267.664062 584.949219 271.375 C 570.394531 294.203125 543.417969 314.890625 518.300781 296.199219 C 543.5625 328.15625 581.8125 298.625 600.652344 280.789062 C 606.214844 275.511719 610.070312 271.230469 611.355469 269.949219 C 617.0625 263.957031 623.199219 270.945312 638.902344 267.378906 C 654.457031 263.8125 647.75 248.832031 647.75 248.832031 C 632.621094 253.824219 622.203125 243.839844 622.203125 243.839844 C 654.601562 249.832031 644.464844 225.863281 644.464844 225.863281 C 629.050781 216.304688 622.203125 201.179688 619.203125 187.625 C 618.347656 183.488281 617.777344 179.351562 617.492188 175.785156 C 617.492188 175.785156 617.492188 175.640625 617.492188 175.640625 C 617.492188 175.355469 617.492188 175.070312 617.492188 174.929688 C 617.492188 174.5 617.492188 174.214844 617.347656 173.929688 C 617.347656 173.644531 617.347656 173.5 617.347656 173.214844 C 617.347656 172.789062 617.347656 172.359375 617.347656 172.074219 C 617.347656 171.933594 617.347656 171.789062 617.347656 171.503906 C 617.207031 167.507812 617.347656 164.226562 617.492188 161.945312 C 617.492188 161.800781 617.492188 161.515625 617.492188 161.375 C 617.492188 160.804688 617.632812 160.375 617.632812 159.949219 C 617.632812 159.804688 617.632812 159.804688 617.632812 159.664062 C 617.632812 159.375 617.632812 159.234375 617.777344 158.949219 C 617.777344 158.804688 617.777344 158.804688 617.777344 158.664062 C 617.777344 158.519531 617.777344 158.519531 617.777344 158.519531 C 617.777344 158.378906 617.777344 158.378906 617.777344 158.378906 C 617.207031 157.949219 616.777344 157.664062 616.207031 157.378906 C 616.066406 157.378906 616.066406 157.238281 615.921875 157.238281 C 609.5 152.8125 603.21875 149.105469 596.652344 146.394531 C 585.523438 141.683594 573.820312 139.402344 559.972656 139.402344 C 537.28125 139.402344 526.148438 153.242188 503.457031 153.242188 C 480.761719 153.242188 469.628906 138.832031 446.367188 138.832031 Z M 446.367188 138.832031 " fill-opacity="1" fill-rule="nonzero"/><path fill="#9e0606" d="M 567.539062 320.027344 C 536.566406 324.589844 521.722656 359.972656 521.722656 359.972656 C 528.148438 352.269531 537.566406 343.425781 549.269531 339.570312 C 542.988281 378.664062 544.132812 417.183594 549.984375 452.710938 C 555.550781 454.136719 560.832031 455.5625 565.824219 457.277344 C 544.558594 360.828125 567.539062 320.027344 567.539062 320.027344 Z M 567.539062 320.027344 " fill-opacity="1" fill-rule="nonzero"/><path fill="#9e0606" d="M 438.230469 320.027344 C 469.203125 324.589844 484.046875 359.972656 484.046875 359.972656 C 477.621094 352.269531 468.203125 343.425781 456.5 339.570312 C 462.777344 378.664062 461.636719 417.183594 455.785156 452.710938 C 450.21875 454.136719 444.9375 455.5625 439.945312 457.277344 C 461.210938 360.828125 438.230469 320.027344 438.230469 320.027344 Z M 438.230469 320.027344 " fill-opacity="1" fill-rule="nonzero"/><path fill="#9e0606" d="M 502.882812 503.503906 C 482.617188 503.789062 467.632812 509.921875 454.929688 510.921875 C 462.207031 517.339844 471.199219 521.90625 481.617188 524.617188 C 481.902344 524.761719 482.332031 524.761719 482.617188 524.902344 C 484.617188 517.914062 493.894531 511.0625 502.882812 511.0625 C 511.875 511.0625 521.152344 517.914062 523.152344 524.902344 C 523.4375 524.761719 523.863281 524.761719 524.152344 524.617188 C 534.570312 521.90625 543.5625 517.339844 550.839844 510.921875 C 538.136719 510.066406 523.152344 503.789062 502.882812 503.503906 Z M 502.882812 503.503906 " fill-opacity="1" fill-rule="nonzero"/><path fill="#9e0606" d="M 620.0625 309.609375 C 620.0625 309.609375 610.925781 312.605469 605.21875 313.175781 C 599.652344 313.75 593.515625 313.605469 590.375 318.882812 C 587.234375 324.304688 596.367188 349.988281 600.507812 359.402344 C 604.789062 368.960938 610.070312 376.953125 613.066406 394.929688 C 613.066406 394.929688 617.632812 388.652344 622.773438 381.375 C 621.058594 377.808594 619.488281 374.527344 617.921875 371.101562 C 613.636719 361.542969 604.503906 335.863281 607.785156 330.582031 C 609.925781 327.015625 616.351562 328.015625 621.917969 329.15625 C 624.628906 329.726562 627.195312 330.296875 628.765625 330.441406 C 632.050781 330.582031 635.476562 330.15625 638.328125 329.585938 C 638.042969 328.015625 637.472656 326.875 636.902344 326.160156 C 635.476562 324.589844 633.046875 322.023438 630.335938 319.453125 C 625.628906 314.890625 620.632812 310.179688 620.0625 309.609375 Z M 620.0625 309.609375 " fill-opacity="1" fill-rule="nonzero"/><path fill="#9e0606" d="M 579.527344 320.027344 C 574.105469 326.875 568.964844 340 567.253906 352.984375 C 565.824219 363.683594 564.96875 377.238281 565.824219 394.214844 C 566.683594 411.191406 570.679688 438.445312 574.390625 455.136719 C 578.101562 471.972656 578.386719 474.539062 578.527344 485.953125 C 583.953125 472.683594 589.234375 463.554688 594.226562 454.992188 C 590.230469 443.722656 587.664062 433.878906 586.09375 425.746094 C 583.523438 412.90625 584.09375 398.78125 587.089844 390.648438 C 595.511719 404.34375 602.792969 413.902344 609.214844 421.609375 C 610.355469 412.476562 608.785156 400.921875 603.789062 387.796875 C 596.796875 369.675781 587.804688 356.40625 579.527344 320.027344 Z M 579.527344 320.027344 " fill-opacity="1" fill-rule="nonzero"/><path fill="#b3b3b3" d="M 709.121094 169.933594 C 665.734375 171.648438 634.476562 187.339844 627.625 191.050781 C 630.765625 201.609375 636.902344 212.164062 648.035156 219.15625 C 648.035156 219.15625 702.699219 202.890625 747.085938 214.164062 C 791.472656 225.433594 819.304688 247.832031 851.84375 300.621094 C 827.011719 243.839844 802.746094 217.585938 760.359375 200.179688 C 727.960938 186.914062 687.425781 188.625 670.015625 190.195312 C 682.003906 181.492188 695.277344 174.785156 709.121094 169.933594 Z M 709.121094 169.933594 " fill-opacity="1" fill-rule="nonzero"/><path fill="#cccccc" d="M 683.003906 145.964844 C 648.890625 145.824219 625.484375 154.527344 625.484375 154.527344 L 624.914062 159.089844 C 624.628906 161.230469 624.484375 163.371094 624.34375 165.511719 C 633.476562 161.945312 650.890625 156.09375 673.726562 153.667969 C 692.851562 151.671875 715.542969 151.957031 740.089844 158.09375 C 757.21875 162.371094 772.347656 168.507812 785.621094 176.355469 C 774.773438 168.9375 762.5 162.800781 748.511719 157.664062 C 724.820312 148.960938 702.269531 146.109375 683.003906 145.964844 Z M 683.003906 145.964844 " fill-opacity="1" fill-rule="nonzero"/><path fill="#b3b3b3" d="M 296.648438 169.933594 C 340.035156 171.648438 371.292969 187.339844 378.144531 191.050781 C 375.003906 201.609375 368.867188 212.164062 357.734375 219.15625 C 357.734375 219.15625 303.070312 202.890625 258.683594 214.164062 C 214.296875 225.433594 186.464844 247.832031 153.925781 300.621094 C 178.757812 243.839844 203.023438 217.585938 245.410156 200.179688 C 277.808594 186.914062 318.34375 188.625 335.753906 190.195312 C 323.765625 181.492188 310.492188 174.785156 296.648438 169.933594 Z M 296.648438 169.933594 " fill-opacity="1" fill-rule="nonzero"/><path fill="#cccccc" d="M 322.765625 145.964844 C 356.878906 145.824219 380.285156 154.527344 380.285156 154.527344 L 380.855469 159.089844 C 381.140625 161.230469 381.285156 163.371094 381.425781 165.511719 C 372.292969 161.945312 354.878906 156.09375 332.042969 153.667969 C 312.917969 151.671875 290.226562 151.957031 265.679688 158.09375 C 248.550781 162.371094 233.421875 168.507812 220.148438 176.355469 C 230.996094 168.9375 243.269531 162.800781 257.257812 157.664062 C 280.949219 148.960938 303.5 146.109375 322.765625 145.964844 Z M 322.765625 145.964844 " fill-opacity="1" fill-rule="nonzero"/><path fill="#9e0606" d="M 656.3125 244.125 C 656.3125 244.695312 656.457031 245.265625 656.457031 245.835938 C 656.457031 246.835938 656.597656 247.976562 656.597656 249.117188 C 656.597656 249.261719 656.597656 249.402344 656.597656 249.402344 C 677.578125 255.824219 691.707031 260.390625 712.117188 257.394531 C 732.667969 254.253906 750.082031 245.121094 750.082031 241.554688 C 750.082031 239.703125 742.804688 237.417969 733.527344 235.421875 C 730.101562 234.707031 726.390625 233.996094 722.679688 233.421875 C 719.539062 233.28125 716.398438 233.28125 713.542969 233.28125 C 710.691406 233.28125 707.980469 233.28125 705.550781 233.421875 C 691.136719 233.996094 672.726562 238.132812 656.3125 244.125 Z M 656.3125 244.125 " fill-opacity="1" fill-rule="nonzero"/><path fill="#b40a0a" d="M 315.058594 220.296875 C 328.761719 220.296875 340.324219 222.011719 354.023438 224.433594 C 354.023438 224.433594 353.59375 225.433594 353.023438 227.144531 C 352.738281 228.003906 352.3125 229.144531 352.027344 230.285156 C 351.597656 231.570312 351.3125 232.996094 350.882812 234.566406 C 350.882812 234.851562 350.742188 234.992188 350.742188 235.277344 C 333.613281 231.570312 314.488281 229.855469 300.074219 231.140625 C 295.363281 231.570312 289.371094 232.28125 283.089844 233.421875 C 286.230469 233.28125 289.371094 233.28125 292.222656 233.28125 C 295.078125 233.28125 297.789062 233.28125 300.21875 233.421875 C 314.632812 234.136719 333.042969 238.273438 349.457031 244.125 C 349.457031 244.695312 349.3125 245.265625 349.3125 245.835938 C 349.3125 246.835938 349.171875 247.976562 349.171875 249.117188 C 349.171875 249.261719 349.171875 249.402344 349.171875 249.402344 C 349.171875 250.402344 349.171875 251.398438 349.171875 252.542969 C 349.171875 253.253906 349.3125 253.96875 349.3125 254.824219 C 349.3125 254.96875 349.3125 255.109375 349.3125 255.394531 C 349.3125 255.679688 349.3125 255.964844 349.3125 256.25 C 349.3125 256.25 349.3125 256.25 349.3125 256.394531 C 349.457031 257.820312 349.597656 259.246094 349.742188 259.960938 C 349.742188 259.960938 318.058594 273.515625 290.367188 267.949219 C 262.679688 262.386719 243.699219 251.6875 243.699219 240.984375 C 243.699219 230.285156 270.671875 224.292969 294.652344 221.582031 C 302.214844 220.726562 308.78125 220.296875 315.058594 220.296875 Z M 279.808594 233.996094 C 279.523438 233.996094 279.238281 234.136719 278.953125 234.136719 C 279.238281 233.996094 279.523438 233.996094 279.808594 233.996094 Z M 276.382812 234.566406 C 275.953125 234.707031 275.527344 234.707031 275.242188 234.851562 C 275.667969 234.707031 275.953125 234.707031 276.382812 234.566406 Z M 274.667969 234.992188 C 273.8125 235.136719 273.097656 235.277344 272.242188 235.421875 C 273.097656 235.277344 273.8125 235.136719 274.667969 234.992188 Z M 274.667969 234.992188 " fill-opacity="1" fill-rule="nonzero"/><path fill="#9e0606" d="M 349.457031 244.125 C 349.457031 244.695312 349.3125 245.265625 349.3125 245.835938 C 349.3125 246.835938 349.171875 247.976562 349.171875 249.117188 C 349.171875 249.261719 349.171875 249.402344 349.171875 249.402344 C 328.191406 255.824219 314.0625 260.390625 293.652344 257.394531 C 273.097656 254.398438 255.6875 245.121094 255.6875 241.554688 C 255.6875 239.703125 262.964844 237.417969 272.242188 235.421875 C 275.667969 234.707031 279.378906 233.996094 283.089844 233.421875 C 286.230469 233.28125 289.371094 233.28125 292.222656 233.28125 C 295.078125 233.28125 297.789062 233.28125 300.21875 233.421875 C 314.632812 233.996094 333.042969 238.132812 349.457031 244.125 Z M 349.457031 244.125 " fill-opacity="1" fill-rule="nonzero"/><path fill="#9e0606" d="M 385.707031 309.609375 C 385.707031 309.609375 394.84375 312.605469 400.550781 313.175781 C 406.117188 313.75 412.253906 313.605469 415.394531 318.882812 C 418.535156 324.304688 409.402344 349.988281 405.261719 359.402344 C 400.980469 368.960938 395.699219 376.953125 392.703125 394.929688 C 392.703125 394.929688 388.136719 388.652344 382.996094 381.375 C 384.710938 377.808594 386.28125 374.527344 387.847656 371.101562 C 392.132812 361.542969 401.265625 335.863281 397.984375 330.582031 C 395.84375 327.015625 389.417969 328.015625 383.851562 329.15625 C 381.140625 329.726562 378.574219 330.296875 377.003906 330.441406 C 373.71875 330.582031 370.292969 330.15625 367.441406 329.585938 C 367.726562 328.015625 368.296875 326.875 368.867188 326.160156 C 370.292969 324.589844 372.71875 322.023438 375.433594 319.453125 C 380.140625 314.890625 385.136719 310.179688 385.707031 309.609375 Z M 385.707031 309.609375 " fill-opacity="1" fill-rule="nonzero"/><path fill="#9e0606" d="M 446.652344 519.625 C 449.648438 529.609375 454.785156 548.160156 457.640625 566.707031 C 473.769531 574.410156 489.753906 579.546875 502.882812 579.546875 C 516.15625 579.546875 532 574.410156 548.128906 566.707031 C 550.984375 548.160156 555.976562 529.609375 558.976562 519.625 C 558.691406 519.910156 558.402344 520.050781 558.117188 520.335938 C 557.546875 520.765625 556.976562 521.195312 556.40625 521.621094 C 550.269531 526.328125 543.703125 530.183594 536.425781 532.894531 C 535.140625 533.464844 533.714844 533.890625 532.429688 534.320312 C 523.578125 537.171875 513.730469 538.597656 502.742188 538.597656 C 491.753906 538.597656 481.902344 537.171875 473.054688 534.320312 C 471.628906 533.890625 470.34375 533.464844 469.058594 532.894531 C 461.78125 530.039062 455.214844 526.328125 449.078125 521.621094 C 448.507812 521.195312 447.9375 520.765625 447.363281 520.335938 C 447.222656 520.050781 446.9375 519.765625 446.652344 519.625 Z M 446.652344 519.625 " fill-opacity="1" fill-rule="nonzero"/><path fill="#9e0606" d="M 354.738281 357.121094 C 348.316406 381.804688 337.183594 428.171875 333.042969 469.6875 C 333.042969 469.6875 359.019531 535.460938 366.582031 543.449219 C 374.148438 551.441406 424.53125 597.238281 435.234375 623.773438 C 428.527344 595.953125 385.421875 543.164062 379.144531 534.175781 C 375.148438 528.46875 371.152344 508.636719 362.015625 477.25 C 379.144531 502.644531 382.996094 509.636719 389.847656 521.195312 C 390.277344 522.050781 390.847656 522.761719 391.417969 523.332031 C 391.988281 523.90625 392.558594 524.476562 393.414062 525.046875 C 409.828125 538.457031 431.238281 553.4375 452.644531 564.28125 C 445.082031 540.027344 433.804688 515.914062 428.238281 504.644531 C 421.390625 497.367188 417.394531 488.09375 412.113281 478.390625 C 404.261719 463.980469 396.554688 453.28125 389.132812 435.589844 C 388.992188 435.304688 388.847656 435.019531 388.707031 434.589844 C 388.707031 434.449219 388.5625 434.449219 388.5625 434.304688 C 388.421875 434.019531 388.421875 433.734375 388.277344 433.449219 C 388.277344 433.449219 388.277344 433.308594 388.277344 433.308594 C 387.992188 432.59375 387.847656 431.878906 387.5625 431.167969 C 385.421875 423.75 384.996094 415.332031 386.28125 406.058594 C 378.285156 393.503906 368.867188 380.234375 361.160156 370.53125 C 357.164062 365.824219 355.449219 361.257812 354.738281 357.121094 Z M 354.738281 357.121094 " fill-opacity="1" fill-rule="nonzero"/><path fill="#9e0606" d="M 651.03125 357.121094 C 650.316406 361.257812 648.605469 365.824219 644.753906 370.675781 C 637.046875 380.375 627.625 393.644531 619.632812 406.199219 C 620.917969 415.332031 620.488281 423.890625 618.347656 431.308594 C 618.207031 432.023438 617.921875 432.738281 617.632812 433.449219 C 617.632812 433.449219 617.632812 433.59375 617.632812 433.59375 C 617.492188 433.878906 617.492188 434.164062 617.347656 434.449219 C 617.347656 434.589844 617.207031 434.589844 617.207031 434.734375 C 617.0625 435.019531 616.921875 435.304688 616.777344 435.734375 C 609.355469 453.28125 601.507812 464.125 593.800781 478.535156 C 588.519531 488.378906 584.378906 497.652344 577.527344 504.929688 C 571.964844 516.34375 560.6875 540.3125 553.125 564.566406 C 574.53125 553.722656 595.941406 538.742188 612.355469 525.332031 C 613.066406 524.761719 613.636719 524.191406 614.351562 523.617188 C 614.921875 523.046875 615.492188 522.335938 615.921875 521.480469 C 622.773438 509.921875 626.625 503.074219 643.753906 477.535156 C 634.476562 508.78125 630.621094 528.613281 626.625 534.460938 C 620.347656 543.449219 577.386719 596.238281 570.535156 624.058594 C 581.382812 597.523438 631.621094 551.726562 639.1875 543.734375 C 646.75 535.746094 672.726562 469.972656 672.726562 469.972656 C 668.730469 428.171875 657.597656 381.660156 651.03125 357.121094 Z M 651.03125 357.121094 " fill-opacity="1" fill-rule="nonzero"/><path fill="#ffffff" d="M 378 281.503906 C 387.136719 281.789062 392.273438 281.933594 397.269531 286.640625 C 402.265625 291.347656 405.40625 297.769531 411.113281 302.621094 C 411.113281 302.621094 380.425781 306.328125 378 281.503906 Z M 378 281.503906 " fill-opacity="1" fill-rule="nonzero"/><path fill="#9e0606" d="M 321.054688 484.527344 C 316.773438 489.949219 311.636719 496.082031 306.496094 502.503906 C 309.351562 506.925781 312.347656 511.492188 315.347656 515.773438 C 316.34375 517.199219 317.34375 518.625 318.34375 520.050781 C 318.34375 520.050781 318.34375 520.195312 318.484375 520.195312 C 319.484375 521.621094 320.484375 523.046875 321.484375 524.476562 C 324.480469 528.898438 327.621094 533.179688 330.902344 537.457031 C 331.902344 538.886719 333.042969 540.3125 334.042969 541.738281 C 335.042969 543.164062 336.183594 544.59375 337.183594 545.875 C 337.183594 545.875 337.183594 546.019531 337.324219 546.019531 C 338.324219 547.445312 339.464844 548.871094 340.464844 550.15625 C 343.746094 554.4375 347.03125 558.574219 350.457031 562.710938 C 351.597656 564.136719 352.738281 565.421875 353.882812 566.847656 C 355.023438 568.277344 356.164062 569.558594 357.304688 570.984375 C 375.003906 579.832031 412.253906 600.089844 435.234375 623.488281 C 421.960938 598.09375 367.441406 557.289062 359.160156 550.011719 C 356.164062 547.445312 350.171875 537.601562 343.605469 526.1875 C 334.898438 511.0625 325.195312 492.660156 321.054688 484.527344 Z M 321.054688 484.527344 " fill-opacity="1" fill-rule="nonzero"/><path fill="#9e0606" d="M 684.714844 484.527344 C 680.574219 492.660156 670.871094 511.0625 662.164062 526.328125 C 655.597656 537.742188 649.605469 547.589844 646.609375 550.15625 C 638.328125 557.433594 583.808594 598.238281 570.535156 623.632812 C 593.515625 600.089844 630.621094 579.972656 648.464844 571.128906 C 651.886719 566.992188 655.3125 562.855469 658.597656 558.714844 C 659.738281 557.289062 660.738281 556.003906 661.878906 554.578125 C 663.019531 553.152344 664.019531 551.867188 665.160156 550.441406 C 668.445312 546.160156 671.585938 542.023438 674.867188 537.742188 C 675.867188 536.316406 676.863281 534.890625 677.863281 533.605469 C 677.863281 533.464844 678.007812 533.464844 678.007812 533.320312 C 679.003906 531.894531 680.003906 530.609375 681.003906 529.183594 C 681.003906 529.183594 681.003906 529.183594 681.003906 529.039062 C 684 524.761719 687.140625 520.480469 689.996094 516.058594 C 689.996094 516.058594 690.136719 515.914062 690.136719 515.914062 C 691.136719 514.488281 691.992188 513.0625 692.992188 511.632812 C 692.992188 511.492188 693.136719 511.492188 693.136719 511.347656 C 694.132812 509.921875 694.992188 508.496094 695.988281 507.070312 C 695.988281 506.925781 696.132812 506.925781 696.132812 506.785156 C 697.132812 505.355469 697.988281 503.929688 698.988281 502.503906 C 693.992188 496.226562 688.996094 489.949219 684.714844 484.527344 Z M 684.714844 484.527344 " fill-opacity="1" fill-rule="nonzero"/><path fill="#cc0b0b" d="M 427.382812 485.953125 C 427.527344 474.539062 427.8125 471.972656 431.523438 455.136719 C 435.234375 438.300781 439.230469 411.191406 440.085938 394.214844 C 440.941406 377.238281 440.085938 363.539062 438.660156 352.984375 C 436.804688 340 431.808594 326.875 426.382812 320.027344 C 418.105469 356.265625 409.113281 369.675781 402.265625 387.652344 C 395.414062 405.628906 394.984375 420.609375 399.125 430.597656 C 407.117188 450.429688 417.109375 460.699219 427.382812 485.953125 Z M 427.382812 485.953125 " fill-opacity="1" fill-rule="nonzero"/><path fill="#9e0606" d="M 426.242188 320.027344 C 431.664062 326.875 436.804688 340 438.515625 352.984375 C 439.945312 363.683594 440.800781 377.238281 439.945312 394.214844 C 439.085938 411.191406 435.089844 438.445312 431.378906 455.136719 C 427.667969 471.972656 427.382812 474.539062 427.242188 485.953125 C 421.816406 472.683594 416.535156 463.554688 411.542969 454.992188 C 415.539062 443.722656 418.105469 433.878906 419.675781 425.746094 C 422.246094 412.90625 421.675781 398.78125 418.675781 390.648438 C 410.257812 404.34375 402.976562 413.902344 396.554688 421.609375 C 395.414062 412.476562 396.984375 400.921875 401.980469 387.796875 C 408.972656 369.675781 417.964844 356.40625 426.242188 320.027344 Z M 426.242188 320.027344 " fill-opacity="1" fill-rule="nonzero"/></svg>